<svg height="192" viewBox="0 0 480 192" width="480" xmlns="http://www.w3.org/2000/svg"><g stroke="#000" transform="translate(0 128)"><g transform="matrix(2.9677 0 0 2.9388 -3.3988 -124.88)"><path d="m29 44c0 5-2 15-2 20-1 0-5 0-5 0 0-3 1-18 1-20 2-1 4 1 6 0z" fill="#695d69"/><path d="m29 44c0-2 4-5 2-9-1-4-4-2-6 1-2 2-2 5-2 8 3 1 6 0 6 0z" fill="#d18251"/><path d="m18 11c1 5 4 2 6-4 1-2 3-2 1 0-1 2-3 10 0 10 3-3 4-8 4-12s-5-5-7-3c-3 2-3 6-4 9z" fill="#adff1e"/><path d="m30 34c-3-2-7-5-7-8-1-4-2-9 2-11 3-2 8 1 9 4 2 3 3 8 0 11-1 1-2 3-4 4z" fill="#38b303"/><path d="m16 34c1 3 7 4 7 0-1-3-1-6-2-10 1-6-1-12-6-13-4-1-7-9-11-7-1 3 3 10 4 14s1 5 3 10 3 4 5 6z" fill="#f2e600"/><path d="m25 3c-4-1-2 8-5 11-1 4 5 4 5 0 1-4 3-10 0-11z" fill="#869265"/><path d="m4 4c1 5 6 5 10 7 6 2 7 7 7 13 0 3 4 26 5 5 0-4-2-8-2-12-1-4-5-8-7-11s-5-6-9-5c-1 0-4 1-4 3z" fill="#92f492"/><path d="m27 32c-5-1-10 0-14 3-4 2-9 4-10 9-1 3 3 6 7 4 3-2 7-2 10-5s8-6 8-10c0 0-1-1-1-1z" fill="#ccefb4"/><path d="m30 35c-2 4 4 6 7 5 3 0 6-3 8-7 4-5 10-10 12-17 0-4-4-5-7-4-4 1-7 5-9 8-4 5-7 11-11 15z" fill="#83e269"/><path d="m36 32c2-2 3-7 7-8 3 0 8-4 8 1-2 3-6 7-8 11-2 0-8-2-7-4z" fill="#4a4b88"/><path d="m40 39c4-2 5-7 8-9 5-1 9 0 13 4 4 3 1 10-4 9-7 0-16-4-17-4z" fill="#e0ff93"/><path d="m40 39h-9c-2 4-1 11 1 15 3 3 6-7 7-10 0-3 0-1 0-5z" fill="#ddd9da"/><path d="m39 44c-1 3-4 6-7 10 1 2 2 5 5 6 4 1 9-3 7-7s-3-6-5-9z" fill="#fdfa52"/></g><g fill="#175f00"><g stroke-width="3" transform="matrix(.7481 0 0 .74053 1.1019 16.532)"><path d="m352.3-57.407q-3.25 14.166-12.5 21.583-9.25 7.417-23.92 7.417-19.33 0-31.08-12.75-11.75-12.834-11.75-34 0-21.25 11.75-33.913 11.75-12.75 31.08-12.75 8.42 0 16.75 2 8.34 1.91 16.75 5.91v22.669h-8.91q-1.75-11.669-7.67-16.999-5.83-5.33-16.75-5.33-12.42 0-18.75 9.66-6.33 9.586-6.33 28.753 0 19.166 6.25 28.833 6.33 9.667 18.83 9.667 9.92 0 15.83-5.167 5.92-5.167 8.09-15.583z"/><path d="m428.13-58.657v-18.75h-19.75q-11.41 0-17 4.916-5.58 4.917-5.58 15.084 0 9.25 5.67 14.666 5.66 5.417 15.33 5.417 9.58 0 15.42-5.917 5.91-5.916 5.91-15.416zm15.34-27.5v46.5h13.66v8.833h-29v-9.583q-5.08 6.166-11.75 9.083-6.66 2.917-15.58 2.917-14.75 0-23.42-7.834-8.66-7.833-8.66-21.166 0-13.75 9.91-21.334 9.92-7.583 28-7.583h21.5v-6.083q0-10.083-6.16-15.583-6.09-5.58-17.17-5.58-9.17 0-14.58 4.16-5.42 4.17-6.75 12.336h-7.92v-17.916q8-3.42 15.5-5.08 7.58-1.75 14.75-1.75 18.42 0 28 9.16 9.67 9.09 9.67 26.503z"/><path d="m496.88-39.657h14.5v8.833h-44.58v-8.833h14.75v-112.003h-14.75v-8.83h30.08z"/><path d="m584.47-58.657v-18.75h-19.75q-11.42 0-17 4.916-5.59 4.917-5.59 15.084 0 9.25 5.67 14.666 5.67 5.417 15.33 5.417 9.59 0 15.42-5.917 5.92-5.916 5.92-15.416zm15.33-27.5v46.5h13.67v8.833h-29v-9.583q-5.09 6.166-11.75 9.083-6.67 2.917-15.59 2.917-14.75 0-23.41-7.834-8.67-7.833-8.67-21.166 0-13.75 9.92-21.334 9.91-7.583 28-7.583h21.5v-6.083q0-10.083-6.17-15.583-6.08-5.58-17.17-5.58-9.16 0-14.58 4.16-5.42 4.17-6.75 12.336h-7.92v-17.916q8-3.42 15.5-5.08 7.59-1.75 14.75-1.75 18.42 0 28 9.16 9.67 9.09 9.67 26.503z"/></g><path d="m192.2 3.2412h281.66v10.6238h-281.66z" stroke-linecap="round" stroke-width="2.23289"/></g></g></svg>